<svg xmlns="http://www.w3.org/2000/svg" viewBox="0 0 64 64">
  <rect width="64" height="64" rx="14" fill="#4f46e5"/>
  <path d="M12 18h18c5.5 0 9 3.2 9 8.1 0 3.4-1.7 5.9-4.7 7.2L43 46H32.7l-7.5-11.2h-4.3V46H12V18Zm17.2 9.9c0-1.9-1.3-3-3.7-3h-4.6v6.1h4.6c2.4 0 3.7-1.1 3.7-3.1Z" fill="#fff"/>
  <path d="M44.2 47c-4.6 0-8.1-1.5-10.7-4.2l4.8-5.7c1.8 1.7 4.1 2.8 6.4 2.8 1.9 0 2.8-.6 2.8-1.7 0-1.2-1-1.6-4.2-2.4-4.2-1-8.4-2.4-8.4-8.1 0-5 3.9-8.6 10.3-8.6 4.1 0 7.2 1.1 9.8 3.2l-4.3 6.1c-1.8-1.3-3.9-2.1-5.7-2.1-1.6 0-2.4.6-2.4 1.5 0 1.2 1 1.6 4.3 2.4 4.8 1.1 8.3 2.8 8.3 8 0 5.5-4.3 8.8-11 8.8Z" fill="#fff"/>
</svg>
